<svg xmlns="http://www.w3.org/2000/svg"  viewBox="0 0 256 256" width="512px" height="512px"><path fill="#FFE2E2" d="M237.556,101.695H216.69c-1.807-6.146-4.258-12.11-7.391-17.834L224.061,69.1 c3.595-3.595,3.595-9.439,0-13.034l-24.14-24.12c-3.615-3.615-9.439-3.615-13.054,0l-14.741,14.741 c-5.724-3.133-11.708-5.583-17.854-7.39V18.43c0-5.081-4.137-9.218-9.218-9.218h-34.121c-5.101,0-9.238,4.137-9.238,9.218v20.867 c-6.145,1.807-12.11,4.277-17.834,7.39L69.1,31.946c-3.595-3.615-9.439-3.615-13.034,0l-24.12,24.12 c-3.615,3.595-3.615,9.439,0,13.034l14.741,14.761c-3.374,6.226-5.985,12.733-7.832,19.441H18.43 c-5.081,0-9.218,4.117-9.218,9.198v34.141c0,5.081,4.137,9.218,9.218,9.218h21.368c1.727,5.583,4.037,11.046,6.888,16.247 l-14.741,14.761c-3.615,3.615-3.615,9.439,0,13.054l24.12,24.14c3.595,3.595,9.439,3.595,13.034,0l14.761-14.761 c5.724,3.113,11.688,5.563,17.834,7.391v20.866c0,5.101,4.137,9.238,9.238,9.238h34.121c5.081,0,9.218-4.137,9.218-9.238V216.69 c6.145-1.828,12.13-4.278,17.854-7.391l14.741,14.761c3.615,3.595,9.439,3.595,13.054,0l24.14-24.14 c3.595-3.615,3.595-9.439,0-13.054l-14.761-14.741c3.133-5.724,5.583-11.709,7.391-17.854h20.866 c5.101,0,9.238-4.137,9.238-9.218v-34.122C246.795,105.831,242.657,101.695,237.556,101.695z"/><circle cx="128.003" cy="128.003" r="70.869" fill="#5FCDFF"/><circle cx="128.003" cy="128.003" r="53.888" fill="#FFE2E2" transform="rotate(-22.5 127.997 127.999)"/><path fill="#FFEFEE" d="M134.009,181.555c-1.97,0.224-3.971,0.336-6.005,0.336c-29.714,0-53.887-24.173-53.887-53.887 c0-29.714,24.173-53.887,53.887-53.887c2.034,0,4.036,0.112,6.005,0.336c-26.895,2.995-47.882,25.87-47.882,53.55 C86.127,155.685,107.113,178.561,134.009,181.555z"/><path fill="#73D7F9" d="M134.009,198.618c-1.978,0.168-3.979,0.256-6.005,0.256c-39.074,0-70.869-31.796-70.869-70.869 c0-39.082,31.796-70.869,70.869-70.869c2.026,0,4.028,0.088,6.005,0.256c-36.271,3.051-64.864,33.557-64.864,70.613 C69.145,165.053,97.737,195.568,134.009,198.618z"/><g><path fill="#FFEFEE" d="M110.933,9.213c-5.1,0-9.24,4.14-9.24,9.22v20.86c-2.57,0.76-5.11,1.63-7.61,2.62l4.78,4.77 c5.72-3.11,11.69-5.58,17.83-7.39v-20.86c0-5.08,4.14-9.22,9.24-9.22H110.933z M116.693,237.553v-20.86 c-6.14-1.83-12.11-4.28-17.83-7.39l-4.77,4.77c2.5,0.98,5.03,1.86,7.6,2.62v20.86c0,5.1,4.14,9.24,9.24,9.24h15 C120.833,246.793,116.693,242.653,116.693,237.553z M46.943,56.063l23.14-23.14l-0.98-0.98c-3.6-3.61-9.44-3.61-13.04,0 l-24.12,24.12c-3.61,3.6-3.61,9.44,0,13.04l14.74,14.76c-3.37,6.22-5.98,12.73-7.83,19.44h15c1.85-6.71,4.46-13.22,7.83-19.44 l-14.74-14.76C43.333,65.503,43.333,59.663,46.943,56.063z M46.943,199.923c-3.61-3.62-3.61-9.44,0-13.06l14.74-14.76 c-2.85-5.2-5.16-10.66-6.88-16.24h-15c1.72,5.58,4.03,11.04,6.88,16.24l-14.74,14.76c-3.61,3.62-3.61,9.44,0,13.06l24.12,24.14 c3.6,3.59,9.44,3.59,13.04,0l0.98-0.98L46.943,199.923z M24.213,146.644v-34.14c0-5.09,4.14-9.2,9.22-9.2h-15 c-5.08,0-9.22,4.11-9.22,9.2v34.14c0,5.08,4.14,9.22,9.22,9.22h15C28.353,155.863,24.213,151.723,24.213,146.644z"/></g><g><path fill="#FFCFCF" d="M237.553,101.693h-15c5.1,0,9.24,4.14,9.24,9.24v34.12c0,5.08-4.14,9.22-9.24,9.22h15 c5.1,0,9.24-4.14,9.24-9.22v-34.12C246.793,105.833,242.653,101.693,237.553,101.693z M224.063,56.063l-24.14-24.12 c-3.62-3.61-9.44-3.61-13.06,0l-0.97,0.97l23.17,23.15c3.59,3.6,3.59,9.44,0,13.04l-14.76,14.76c3.13,5.72,5.58,11.69,7.39,17.83 h15c-1.81-6.14-4.26-12.11-7.39-17.83l14.76-14.76C227.653,65.503,227.653,59.663,224.063,56.063z M224.063,186.863l-14.76-14.74 c3.13-5.72,5.58-11.71,7.39-17.85h-15c-1.81,6.14-4.26,12.13-7.39,17.85l14.76,14.74c3.59,3.62,3.59,9.44,0,13.06l-23.17,23.17 l0.97,0.97c3.62,3.59,9.44,3.59,13.06,0l24.14-24.14C227.653,196.303,227.653,190.483,224.063,186.863z M154.273,39.293v-20.86 c0-5.08-4.14-9.22-9.22-9.22h-15c5.08,0,9.22,4.14,9.22,9.22v20.86c6.14,1.81,12.13,4.26,17.85,7.39l4.77-4.77 C159.383,40.923,156.843,40.053,154.273,39.293z M157.123,209.303c-5.72,3.11-11.71,5.56-17.85,7.39v20.86 c0,5.1-4.14,9.24-9.22,9.24h15c5.08,0,9.22-4.14,9.22-9.24v-20.86c2.57-0.76,5.11-1.64,7.61-2.63L157.123,209.303z"/></g><g><path fill="#5F266D" d="M128.003,53.134c-41.283,0-74.869,33.586-74.869,74.869s33.586,74.869,74.869,74.869 s74.869-33.586,74.869-74.869S169.287,53.134,128.003,53.134z M128.003,194.873c-36.872,0-66.869-29.998-66.869-66.869 s29.998-66.869,66.869-66.869s66.869,29.998,66.869,66.869S164.875,194.873,128.003,194.873z"/><path fill="#5F266D" d="M128.003,70.115c-31.919,0-57.888,25.969-57.888,57.888s25.969,57.888,57.888,57.888 c31.92,0,57.889-25.969,57.889-57.888S159.923,70.115,128.003,70.115z M128.003,177.892c-27.508,0-49.888-22.38-49.888-49.888 s22.38-49.888,49.888-49.888c27.509,0,49.889,22.38,49.889,49.888S155.512,177.892,128.003,177.892z"/><path fill="#5F266D" d="M140.664,140.664c1.562-1.563,1.562-4.095,0-5.657l-8.661-8.66v-27.01c0-2.209-1.791-4-4-4s-4,1.791-4,4 v28.667c0,1.061,0.421,2.078,1.171,2.829l9.832,9.832C136.57,142.226,139.102,142.226,140.664,140.664z"/><path fill="#5F266D" d="M237.562,97.7h-17.925c-1.496-4.525-3.313-8.908-5.429-13.09l12.675-12.675 c5.166-5.146,5.182-13.527,0.004-18.706l-24.146-24.118c-5.146-5.145-13.531-5.147-18.7,0l-12.667,12.668 c-4.204-2.123-8.592-3.938-13.103-5.422V18.438c0-7.292-5.933-13.226-13.226-13.226h-34.12c-7.292,0-13.226,5.933-13.226,13.226 v17.92c-4.47,1.474-8.853,3.29-13.087,5.424L71.935,29.117c-5.157-5.178-13.546-5.171-18.689-0.006L29.111,53.23 c-5.179,5.18-5.154,13.564-0.001,18.697l12.672,12.685c-2.362,4.688-4.346,9.606-5.921,14.68H18.438 c-7.292,0-13.226,5.927-13.226,13.211v34.134c0,7.293,5.933,13.226,13.226,13.226h18.464c1.353,3.919,2.985,7.768,4.875,11.5 l-12.672,12.684c-5.141,5.163-5.139,13.548,0.005,18.693l24.134,24.148c5.152,5.152,13.534,5.151,18.685,0l12.686-12.686 c4.194,2.112,8.576,3.93,13.085,5.428v17.931c0,7.293,5.933,13.226,13.226,13.226h34.12c7.293,0,13.226-5.933,13.226-13.226 v-17.93c4.533-1.505,8.924-3.323,13.11-5.428l12.671,12.696c5.158,5.118,13.54,5.116,18.688-0.011l24.148-24.148 c5.145-5.145,5.147-13.531-0.003-18.702l-12.678-12.654c2.114-4.188,3.932-8.581,5.429-13.114h17.925 c7.292,0,13.226-5.933,13.226-13.226v-34.12C250.788,103.633,244.854,97.7,237.562,97.7z M242.788,145.045 c0,2.881-2.344,5.226-5.226,5.226H216.7c-1.771,0-3.331,1.165-3.835,2.862c-1.778,5.994-4.16,11.742-7.079,17.083 c-0.852,1.56-0.573,3.494,0.685,4.749l14.755,14.727c2.035,2.044,2.038,5.36,0.006,7.392l-24.142,24.142 c-2.035,2.027-5.355,2.025-7.389,0.008l-14.735-14.764c-1.252-1.255-3.183-1.537-4.742-0.688 c-5.343,2.906-11.096,5.29-17.099,7.085c-1.693,0.506-2.854,2.064-2.854,3.832v20.862c0,2.882-2.344,5.226-5.226,5.226h-34.12 c-2.881,0-5.226-2.344-5.226-5.226V216.7c0-1.768-1.16-3.326-2.854-3.832c-5.96-1.783-11.704-4.167-17.07-7.085 c-1.562-0.85-3.49-0.564-4.74,0.685l-14.764,14.764c-2.025,2.026-5.344,2.027-7.37,0.001l-24.134-24.148 c-2.032-2.032-2.029-5.349,0.001-7.388l14.75-14.764c1.256-1.257,1.532-3.192,0.678-4.75c-2.718-4.958-4.929-10.172-6.572-15.498 c-0.518-1.677-2.067-2.821-3.822-2.821H18.438c-2.881,0-5.226-2.344-5.226-5.226v-34.134c0-2.874,2.344-5.211,5.226-5.211h20.417 c1.799,0,3.376-1.201,3.855-2.935c1.797-6.506,4.318-12.756,7.491-18.578c0.849-1.557,0.571-3.487-0.683-4.742L34.762,66.267 c-2.035-2.027-2.033-5.341,0.005-7.379l24.14-24.125c2.017-2.025,5.323-2.045,7.367,0.007l14.764,14.75 c1.253,1.252,3.182,1.533,4.738,0.684c5.441-2.959,11.179-5.336,17.053-7.065c1.702-0.501,2.871-2.063,2.871-3.837V18.438 c0-2.881,2.344-5.226,5.226-5.226h34.12c2.882,0,5.226,2.344,5.226,5.226V39.3c0,1.774,1.168,3.336,2.871,3.837 c5.948,1.75,11.688,4.126,17.061,7.062c1.559,0.853,3.492,0.573,4.747-0.682l14.744-14.745c2.043-2.035,5.359-2.038,7.393-0.004 l24.146,24.117c2.033,2.033,2.049,5.346,0,7.385l-14.764,14.765c-1.256,1.257-1.533,3.192-0.68,4.75 c2.921,5.332,5.302,11.069,7.077,17.051c0.503,1.697,2.063,2.862,3.834,2.862h20.862c2.881,0,5.226,2.344,5.226,5.226V145.045z"/><path fill="#5F266D" d="M118.399,161.017c-15.196-4.728-20.423-20.505-20.492-20.719c-0.664-2.102-2.905-3.271-5.009-2.612 c-2.108,0.66-3.282,2.905-2.622,5.013c0.254,0.812,6.449,19.954,25.748,25.957c2.109,0.656,4.351-0.522,5.007-2.631 C121.687,163.915,120.509,161.673,118.399,161.017z"/><path fill="#5F266D" d="M138.075,161.113c-2.196,0.524-4.357,0.892-6.424,1.093c-2.199,0.214-3.808,2.169-3.594,4.368 c0.213,2.193,2.162,3.807,4.369,3.594c2.431-0.237,4.957-0.666,7.507-1.274c2.149-0.513,3.475-2.671,2.962-4.819 C142.381,161.925,140.219,160.598,138.075,161.113z"/></g></svg>